<?xml version="1.0" standalone="no"?>
<!DOCTYPE svg PUBLIC "-//W3C//DTD SVG 20010904//EN"
 "http://www.w3.org/TR/2001/REC-SVG-20010904/DTD/svg10.dtd">
<svg version="1.0" xmlns="http://www.w3.org/2000/svg"
 width="512.000000pt" height="512.000000pt" viewBox="0 0 512.000000 512.000000"
 preserveAspectRatio="xMidYMid meet">
<metadata>
Created by potrace 1.11, written by Peter Selinger 2001-2013
</metadata>
<g transform="translate(0.000000,512.000000) scale(0.100000,-0.100000)"
fill="#000000" stroke="none">
<path d="M2285 3810 c-41 -9 -53 -16 -238 -137 -89 -59 -168 -106 -175 -106
-6 0 -10 -3 -7 -5 3 -3 -52 -43 -121 -89 -106 -71 -129 -91 -145 -126 -59
-131 45 -275 184 -253 22 4 84 31 136 60 53 29 128 70 166 91 39 21 101 55
139 77 72 40 72 40 114 1 7 -7 33 -29 59 -50 26 -21 61 -51 77 -66 17 -16 57
-49 89 -75 l57 -47 -27 -22 c-15 -12 -50 -34 -78 -49 -27 -15 -52 -30 -55 -34
-3 -3 -102 -66 -220 -140 -456 -285 -550 -347 -537 -357 46 -36 153 -70 212
-68 84 3 124 14 190 55 181 111 290 143 477 143 157 -1 272 -36 435 -135 88
-52 101 -57 191 -62 63 -4 111 10 242 72 47 22 102 43 123 47 39 8 45 19 24
44 -16 19 -187 300 -187 307 0 3 -5 10 -10 17 -6 7 -39 58 -75 114 -36 58 -87
125 -117 152 -47 43 -225 184 -628 496 -63 49 -117 92 -120 96 -10 13 -85 47
-115 51 -16 3 -43 2 -60 -2z"/>
<path d="M3855 3556 c-152 -39 -264 -142 -314 -289 -28 -80 -23 -218 10 -297
29 -70 38 -84 100 -147 168 -171 445 -170 617 3 125 127 161 323 89 484 -86
190 -304 297 -502 246z"/>
<path d="M2528 2485 c-2 -2 -28 -6 -58 -9 -87 -10 -148 -31 -245 -87 -126 -73
-176 -90 -269 -94 -104 -3 -141 6 -261 64 -163 80 -255 102 -382 95 -141 -8
-206 -31 -363 -130 -59 -37 -106 -58 -155 -70 -141 -33 -144 -34 -151 -57 -13
-39 -13 -46 6 -69 17 -21 27 -23 107 -22 105 1 176 19 298 79 121 58 138 63
241 63 108 1 179 -21 281 -84 133 -83 250 -118 388 -116 84 2 135 9 194 28 40
14 74 29 236 113 45 23 61 25 170 26 l121 0 124 -62 c174 -87 231 -103 370
-104 142 0 244 32 400 127 82 50 153 71 255 73 88 1 139 -11 230 -57 131 -66
191 -83 306 -87 99 -4 124 13 120 82 -1 30 -40 49 -116 57 -39 5 -100 26 -137
49 -235 142 -281 159 -436 159 -138 1 -220 -19 -341 -83 -121 -63 -177 -78
-283 -74 -93 4 -141 19 -235 77 -64 38 -157 80 -204 91 -62 15 -203 29 -211
22z"/>
<path d="M2402 1969 c-74 -20 -161 -59 -236 -106 -74 -47 -138 -63 -249 -60
l-102 3 -125 61 c-142 70 -217 92 -316 94 -158 3 -302 -42 -426 -132 -23 -16
-47 -29 -55 -29 -7 0 -13 -4 -13 -8 0 -11 -90 -38 -152 -47 -63 -8 -98 -37
-92 -73 11 -56 29 -65 134 -59 134 7 130 6 321 95 36 17 84 35 107 40 48 11
212 7 221 -5 3 -4 17 -9 31 -11 14 -1 72 -30 130 -63 58 -34 139 -72 180 -85
124 -41 304 -38 425 7 47 17 139 63 152 76 32 30 130 56 219 58 104 3 161 -12
265 -71 131 -74 231 -101 364 -98 50 1 105 5 123 8 58 11 154 48 202 77 82 50
175 97 207 104 53 11 182 13 225 3 22 -5 81 -29 131 -53 122 -61 197 -82 298
-84 71 -2 87 1 101 16 49 56 19 108 -70 119 -72 8 -149 36 -198 72 -145 104
-261 142 -431 143 -111 0 -155 -13 -318 -90 -138 -65 -141 -66 -230 -68 -122
-3 -162 8 -288 78 -145 82 -205 100 -347 104 -91 3 -130 0 -188 -16z"/>
</g>
</svg>
